<svg width="34" height="33" viewBox="0 0 34 33" fill="none" xmlns="http://www.w3.org/2000/svg">
<path d="M33 16.5C33 24 28 30.4 21.1 32.4V20.2H24.6L25.1 16.1H21V13.5C21 12.3 21.3 11.5 23 11.5H25.2V7.7C24.8 7.7 23.5 7.5 22 7.5C18.9 7.5 16.7 9.4 16.7 13V16H13.2V20.1H16.7V33H16.5C16.2 33 15.9 33 15.6 33C7 32.6 0 25.4 0 16.5C0 7.7 7 0.4 15.7 0C16 0 16.3 0 16.6 0C16.9 0 17.1 0 17.4 0C26.1 0.5 33 7.7 33 16.5Z" fill="#4D4D4D"/>
<path d="M21.1008 20.2V32.4C19.7008 32.8 18.3008 33 16.8008 33V20.2H13.3008V16H16.8008V13C16.8008 9.5 19.0008 7.5 22.1008 7.5C23.6008 7.5 24.9008 7.6 25.3008 7.7V11.4H23.1008C21.4008 11.4 21.1008 12.2 21.1008 13.4V16H25.2008L24.7008 20.1H21.1008V20.2Z" fill="white"/>
<path d="M21.1008 32.4C28.0008 30.4 33.0008 24 33.0008 16.5C33.0008 7.7 26.1008 0.5 17.3008 0C26.1008 0.4 33.0008 7.6 33.0008 16.5C33.1008 24 28.0008 30.4 21.1008 32.4Z" fill="white"/>
</svg>
