<svg width="33" height="33" viewBox="0 0 33 33" fill="none" xmlns="http://www.w3.org/2000/svg">
<path d="M16.5 0C7.4 0 0 7.4 0 16.5C0 25.6 7.4 33 16.5 33C25.6 33 33 25.6 33 16.5C33 7.4 25.6 0 16.5 0ZM11.7 25H7.7V12.9H11.7V25ZM9.7 11.2C8.3 11.2 7.4 10.3 7.4 9.1C7.5 7.9 8.3 7 9.7 7C11.1 7 12 7.9 12 9.1C12 10.3 11.1 11.2 9.7 11.2ZM26.2 25H22.2V18.5C22.2 16.9 21.6 15.8 20.2 15.8C19.1 15.8 18.4 16.6 18.1 17.3C18 17.6 18 17.9 18 18.3V25H14C14 25 14.1 14 14 12.9H18V14.6C18.5 13.8 19.5 12.6 21.6 12.6C24.2 12.6 26.2 14.3 26.2 18V25Z" fill="#4D4D4D"/>
<path d="M12 9.1C12 10.3 11.1 11.2 9.7 11.2C8.4 11.2 7.5 10.3 7.5 9.1C7.5 7.9 8.3 7 9.7 7C11.1 7 12 7.9 12 9.1Z" fill="white"/>
<path d="M11.6992 12.8999H7.69922V24.9999H11.6992V12.8999Z" fill="white"/>
<path d="M26.2 18.0001V25.0001H22.2V18.5001C22.2 16.9001 21.6 15.8001 20.2 15.8001C19.1 15.8001 18.4 16.6001 18.1 17.3001C18 17.6001 18 17.9001 18 18.3001V25.0001H14C14 25.0001 14.1 14.0001 14 12.9001H18V14.6001C18.5 13.8001 19.5 12.6001 21.6 12.6001C24.2 12.6001 26.2 14.3001 26.2 18.0001Z" fill="white"/>
</svg>
