<svg width="33" height="33" viewBox="0 0 33 33" fill="none" xmlns="http://www.w3.org/2000/svg">
<path d="M31.7991 10.1999C30.9991 8.1999 29.7991 6.3999 28.1991 4.7999C26.6991 3.2999 24.8991 2.0999 22.8991 1.1999C20.8991 0.399902 18.6991 -0.100098 16.5991 -0.100098C13.1991 -9.76548e-05 9.99914 0.999902 7.29914 2.7999C4.59914 4.5999 2.49914 7.1999 1.19914 10.1999C-0.100859 13.1999 -0.400859 16.4999 0.299141 19.6999C0.999141 22.9999 2.49914 25.8999 4.79914 28.1999C7.09914 30.4999 10.0991 32.0999 13.2991 32.6999C16.4991 33.2999 19.7991 32.9999 22.7991 31.7999C25.7991 30.4999 28.3991 28.3999 30.1991 25.6999C31.9991 22.9999 32.9991 19.7999 32.9991 16.4999C32.9991 14.3999 32.5991 12.1999 31.7991 10.1999ZM18.5991 22.8999L17.5991 23.9999C16.4991 25.0999 14.8991 25.7999 13.2991 25.7999C11.6991 25.7999 10.1991 25.1999 9.09914 23.9999C7.99914 22.8999 7.29914 21.3999 7.29914 19.6999C7.29914 18.0999 7.89914 16.5999 9.09914 15.4999L10.1991 14.4999C10.4991 14.1999 10.8991 14.0999 11.1991 14.0999C11.5991 14.0999 11.8991 14.2999 12.1991 14.4999C12.4991 14.7999 12.5991 15.0999 12.5991 15.4999C12.5991 15.8999 12.4991 16.2999 12.2991 16.4999L11.1991 17.5999C10.5991 18.1999 10.2991 18.8999 10.2991 19.6999C10.2991 20.4999 10.5991 21.2999 11.1991 21.7999C11.7991 22.3999 12.4991 22.6999 13.2991 22.6999C14.0991 22.6999 14.8991 22.3999 15.3991 21.7999L16.4991 20.6999C16.7991 20.3999 17.1991 20.2999 17.4991 20.2999C17.8991 20.2999 18.1991 20.4999 18.4991 20.6999C18.7991 20.9999 18.8991 21.2999 18.8991 21.6999C18.9991 22.2999 18.8991 22.5999 18.5991 22.8999ZM19.1991 15.9999L15.9991 19.1999C15.6991 19.4999 15.2991 19.5999 14.8991 19.5999C14.4991 19.5999 14.0991 19.3999 13.7991 19.1999C13.4991 18.8999 13.3991 18.4999 13.3991 18.0999C13.3991 17.6999 13.5991 17.2999 13.7991 16.9999L16.9991 13.7999C17.2991 13.4999 17.6991 13.3999 18.0991 13.3999C18.4991 13.3999 18.8991 13.5999 19.1991 13.7999C19.4991 14.0999 19.5991 14.4999 19.5991 14.8999C19.5991 15.3999 19.3991 15.7999 19.1991 15.9999ZM23.8991 17.5999L22.7991 18.5999C22.4991 18.7999 22.0991 18.9999 21.7991 18.9999C21.3991 18.9999 21.0991 18.7999 20.7991 18.5999C20.4991 18.2999 20.3991 17.9999 20.3991 17.5999C20.3991 17.1999 20.4991 16.7999 20.7991 16.5999L21.8991 15.4999C22.4991 14.8999 22.7991 14.1999 22.7991 13.3999C22.7991 12.5999 22.4991 11.7999 21.8991 11.2999C21.2991 10.6999 20.5991 10.3999 19.7991 10.3999C18.9991 10.3999 18.1991 10.6999 17.6991 11.2999L16.5991 12.3999C16.2991 12.5999 15.8991 12.7999 15.5991 12.7999C15.1991 12.7999 14.8991 12.5999 14.5991 12.3999C14.2991 12.0999 14.1991 11.7999 14.1991 11.3999C14.1991 10.9999 14.2991 10.5999 14.5991 10.3999L15.5991 9.2999C16.6991 8.1999 18.2991 7.4999 19.7991 7.4999C21.3991 7.4999 22.8991 8.0999 23.9991 9.2999C25.0991 10.3999 25.7991 11.9999 25.7991 13.4999C25.6991 14.9999 24.9991 16.4999 23.8991 17.5999Z" fill="#4D4D4D"/>
<path d="M18.9988 21.9001C18.9988 22.3001 18.8988 22.7001 18.5988 22.9001L17.5988 24.0001C16.4988 25.1001 14.8988 25.8001 13.2988 25.8001C11.6988 25.8001 10.1988 25.2001 9.09883 24.0001C7.99883 22.9001 7.29883 21.4001 7.29883 19.7001C7.29883 18.1001 7.89883 16.6001 9.09883 15.5001L10.1988 14.5001C10.4988 14.2001 10.8988 14.1001 11.1988 14.1001C11.5988 14.1001 11.8988 14.3001 12.1988 14.5001C12.4988 14.8001 12.5988 15.1001 12.5988 15.5001C12.5988 15.9001 12.4988 16.3001 12.2988 16.5001L11.1988 17.6001C10.5988 18.2001 10.2988 18.9001 10.2988 19.7001C10.2988 20.5001 10.5988 21.3001 11.1988 21.8001C11.7988 22.4001 12.4988 22.7001 13.2988 22.7001C14.0988 22.7001 14.8988 22.4001 15.3988 21.8001L16.4988 20.7001C16.7988 20.4001 17.1988 20.3001 17.4988 20.3001C17.8988 20.3001 18.1988 20.5001 18.4988 20.7001C18.7988 21.2001 18.9988 21.5001 18.9988 21.9001Z" fill="white"/>
<path d="M19.5984 14.9999C19.5984 15.3999 19.3984 15.7999 19.1984 16.0999L15.9984 19.1999C15.6984 19.4999 15.2984 19.5999 14.8984 19.5999C14.4984 19.5999 14.0984 19.3999 13.7984 19.1999C13.4984 18.8999 13.3984 18.4999 13.3984 18.0999C13.3984 17.6999 13.5984 17.2999 13.7984 16.9999L16.9984 13.7999C17.2984 13.4999 17.6984 13.3999 18.0984 13.3999C18.4984 13.3999 18.8984 13.5999 19.1984 13.7999C19.3984 14.1999 19.5984 14.5999 19.5984 14.9999Z" fill="white"/>
<path d="M25.6992 13.4001C25.6992 15.0001 25.0992 16.5001 23.8992 17.7001L22.7992 18.7001C22.4992 18.9001 22.0992 19.1001 21.7992 19.1001C21.3992 19.1001 21.0992 18.9001 20.7992 18.7001C20.4992 18.4001 20.3992 18.1001 20.3992 17.7001C20.3992 17.3001 20.4992 16.9001 20.7992 16.7001L21.8992 15.6001C22.4992 15.0001 22.7992 14.3001 22.7992 13.5001C22.7992 12.7001 22.4992 11.9001 21.8992 11.4001C21.2992 10.8001 20.5992 10.5001 19.7992 10.5001C18.9992 10.5001 18.1992 10.8001 17.6992 11.4001L16.5992 12.5001C16.2992 12.7001 15.8992 12.9001 15.5992 12.9001C15.1992 12.9001 14.8992 12.7001 14.5992 12.5001C14.2992 12.2001 14.1992 11.9001 14.1992 11.5001C14.1992 11.1001 14.2992 10.7001 14.5992 10.5001L15.5992 9.4001C16.6992 8.3001 18.2992 7.6001 19.7992 7.6001C21.3992 7.6001 22.8992 8.2001 23.9992 9.4001C24.9992 10.3001 25.6992 11.8001 25.6992 13.4001Z" fill="white"/>
</svg>
