<svg width="33" height="33" viewBox="0 0 33 33" fill="none" xmlns="http://www.w3.org/2000/svg">
<path d="M26.0992 18.8001C26.0992 19.0001 26.1992 19.3001 26.1992 19.5001C26.1992 23.2001 21.8992 26.2001 16.5992 26.2001C11.2992 26.2001 6.99922 23.2001 6.99922 19.5001C6.99922 19.2001 6.99922 19.0001 7.09922 18.8001C6.29922 18.4001 5.69922 17.6001 5.69922 16.6001C5.69922 15.3001 6.79922 14.2001 8.09922 14.2001C8.79922 14.2001 9.29922 14.5001 9.79922 14.9001C11.4992 13.7001 13.7992 12.9001 16.3992 12.9001L17.5992 7.1001C17.5992 7.0001 17.6992 6.9001 17.7992 6.8001C17.8992 6.7001 17.9992 6.7001 18.0992 6.7001L22.0992 7.6001C22.3992 7.0001 22.9992 6.6001 23.5992 6.6001C24.5992 6.6001 25.2992 7.4001 25.2992 8.3001C25.2992 9.3001 24.4992 10.0001 23.5992 10.0001C22.6992 10.0001 21.8992 9.3001 21.8992 8.4001L18.2992 7.6001L16.9992 12.8001C19.4992 12.9001 21.7992 13.7001 23.3992 14.8001C23.7992 14.4001 24.3992 14.1001 25.0992 14.1001C26.3992 14.1001 27.4992 15.2001 27.4992 16.5001C27.4992 17.5001 26.8992 18.4001 26.0992 18.8001Z" fill="white"/>
<path d="M20 22.1998C19.3 22.8998 17.7 23.1998 16.5 23.1998C15.4 23.1998 13.8 22.8998 13 22.1998C12.8 21.9998 12.5 21.9998 12.4 22.1998C12.2 22.3998 12.2 22.6998 12.4 22.7998C13.6 23.9998 15.8 24.0998 16.5 24.0998C17.2 24.0998 19.4 23.9998 20.6 22.7998C20.8 22.5998 20.8 22.2998 20.6 22.1998C20.4 21.9998 20.1 21.9998 20 22.1998Z" fill="#4D4D4D"/>
<path d="M14.4 18.3001C14.4 17.4001 13.6 16.6001 12.7 16.6001C11.8 16.6001 11 17.4001 11 18.3001C11 19.2001 11.8 20.0001 12.7 20.0001C13.7 20.0001 14.4 19.2001 14.4 18.3001Z" fill="#4D4D4D"/>
<path d="M16.5 0C7.4 0 0 7.4 0 16.5C0 25.7 7.4 33 16.5 33C25.6 33 33 25.7 33 16.5C33 7.4 25.6 0 16.5 0ZM26.1 18.8C26.1 19 26.2 19.3 26.2 19.5C26.2 23.2 21.9 26.2 16.6 26.2C11.3 26.2 7 23.2 7 19.5C7 19.2 7 19 7.1 18.8C6.3 18.4 5.7 17.6 5.7 16.6C5.7 15.3 6.8 14.2 8.1 14.2C8.8 14.2 9.3 14.5 9.8 14.9C11.5 13.7 13.8 12.9 16.4 12.9L17.6 7.1C17.6 7 17.7 6.9 17.8 6.8C17.9 6.7 18 6.7 18.1 6.7L22.1 7.6C22.4 7 23 6.6 23.6 6.6C24.6 6.6 25.3 7.4 25.3 8.3C25.3 9.3 24.5 10 23.6 10C22.7 10 21.9 9.3 21.9 8.4L18.3 7.6L17 12.8C19.5 12.9 21.8 13.7 23.4 14.8C23.8 14.4 24.4 14.1 25.1 14.1C26.4 14.1 27.5 15.2 27.5 16.5C27.5 17.5 26.9 18.4 26.1 18.8Z" fill="#4D4D4D"/>
<path d="M20.2996 16.5C19.3996 16.5 18.5996 17.3 18.5996 18.2C18.5996 19.1 19.3996 19.9 20.2996 19.9C21.1996 19.9 21.9996 19.1 21.9996 18.2C21.9996 17.3 21.1996 16.5 20.2996 16.5Z" fill="#4D4D4D"/>
</svg>
