<svg width="33" height="33" viewBox="0 0 33 33" fill="none" xmlns="http://www.w3.org/2000/svg">
<path d="M16.5 0C7.4 0 0 7.4 0 16.5C0 25.7 7.4 33 16.5 33C25.6 33 33 25.7 33 16.5C33 7.4 25.6 0 16.5 0ZM24 12.9C24 13.1 24 13.2 24 13.4C24 18.4 20.2 24.2 13.2 24.2C11.1 24.2 9.1 23.6 7.4 22.5C7.7 22.5 8 22.6 8.3 22.6C10.1 22.6 11.7 22 13 21C11.3 21 9.9 19.9 9.5 18.4C9.7 18.4 10 18.5 10.2 18.5C10.5 18.5 10.9 18.5 11.2 18.4C9.5 18 8.2 16.5 8.2 14.7C8.7 15 9.3 15.2 9.9 15.2C8.9 14.5 8.2 13.4 8.2 12.1C8.2 11.4 8.4 10.7 8.7 10.2C10.6 12.5 13.4 14 16.5 14.2C16.4 13.9 16.4 13.6 16.4 13.3C16.4 11.2 18.1 9.5 20.2 9.5C21.3 9.5 22.3 10 23 10.7C23.9 10.5 24.7 10.2 25.4 9.8C25.1 10.7 24.5 11.4 23.7 11.9C24.5 11.8 25.2 11.6 25.9 11.3C25.4 11.7 24.8 12.4 24 12.9Z" fill="#E53B2A"/>
<path d="M24.0004 12.9C24.0004 13.1 24.0004 13.2 24.0004 13.4C24.0004 18.4 20.2004 24.2 13.2004 24.2C11.1004 24.2 9.10039 23.6 7.40039 22.5C7.70039 22.5 8.00039 22.6 8.30039 22.6C10.1004 22.6 11.7004 22 13.0004 21C11.3004 21 9.90039 19.9 9.50039 18.4C9.70039 18.4 10.0004 18.5 10.2004 18.5C10.5004 18.5 10.9004 18.5 11.2004 18.4C9.50039 18 8.20039 16.5 8.20039 14.7C8.70039 15 9.30039 15.2 9.90039 15.2C8.90039 14.5 8.20039 13.4 8.20039 12.1C8.20039 11.4 8.40039 10.7 8.70039 10.2C10.6004 12.5 13.4004 14 16.5004 14.2C16.4004 13.9 16.4004 13.6 16.4004 13.3C16.4004 11.2 18.1004 9.5 20.2004 9.5C21.3004 9.5 22.3004 10 23.0004 10.7C23.9004 10.5 24.7004 10.2 25.4004 9.8C25.1004 10.7 24.5004 11.4 23.7004 11.9C24.5004 11.8 25.2004 11.6 25.9004 11.3C25.4004 11.7 24.8004 12.4 24.0004 12.9Z" fill="white"/>
</svg>
