<svg width="79" height="79" viewBox="0 0 79 79" fill="none" xmlns="http://www.w3.org/2000/svg">
<path fill-rule="evenodd" clip-rule="evenodd" d="M39.5 0C17.6847 0 0 17.6847 0 39.5C0 61.3153 17.6847 79 39.5 79C61.3153 79 79 61.3153 79 39.5C79 17.6847 61.3153 0 39.5 0Z" fill="#00C4CC"/>
<path fill-rule="evenodd" clip-rule="evenodd" d="M65.9087 40.6285C65.4573 40.6285 64.6673 40.5156 64.6673 40.0642C64.6673 39.6128 65.683 39.8385 65.5701 38.8228C65.4573 38.1456 64.7802 37.9199 64.103 37.9199C61.8459 37.9199 60.3787 40.8542 60.7173 43.2242C60.8302 44.127 61.2816 45.1428 62.1844 45.1428C62.8616 45.1428 63.8773 44.127 64.3287 42.6599C64.5544 41.757 65.4573 40.967 66.2473 40.967C66.5859 40.967 66.8116 41.0799 66.9244 41.5313C66.9244 41.757 66.9244 42.2085 66.473 43.6756C65.9087 44.6913 65.9087 45.2556 66.0216 45.707C66.1344 46.6099 66.5859 47.287 67.0373 47.6256C67.1502 47.7385 67.263 47.9642 67.263 47.9642C67.263 48.1899 67.1502 48.4156 66.8116 48.4156C66.6987 48.4156 66.5859 48.4156 66.473 48.3028C64.7802 47.6256 64.103 46.497 63.8773 45.3685C63.2001 46.1585 62.4102 46.6099 61.5073 46.6099C60.0401 46.6099 58.573 45.2556 58.3473 43.5627C58.2683 42.8834 58.3699 42.152 58.5922 41.4264C57.923 41.8552 57.2041 42.0956 56.5427 42.0956H55.9784C54.5113 44.2399 52.9313 45.707 51.8027 46.3842C51.3513 46.6099 50.8998 46.7228 50.5613 46.7228C50.3356 46.7228 49.997 46.6099 49.8841 46.3842C49.5738 45.8831 49.3718 45.0908 49.2487 44.1869C47.6654 45.9215 45.4793 46.8356 44.4681 46.8356C43.3395 46.8356 42.6624 46.1585 42.5495 45.0299V43.7885C42.8881 41.3056 43.791 39.8385 43.791 39.387C43.791 39.2742 43.6781 39.1613 43.5653 39.1613C42.7753 39.1613 40.1795 41.8699 39.7281 43.6756L39.3895 45.1428C39.1638 46.1585 38.1481 46.8356 37.471 46.8356C37.1324 46.8356 36.9067 46.7228 36.7938 46.2713V45.8199L36.9473 45.0525C35.5163 46.0727 34.0807 46.7228 33.4092 46.7228C32.3935 46.7228 31.8292 46.1585 31.7164 45.3685C31.0392 46.2713 30.2492 46.7228 29.2335 46.7228C28.0756 46.7228 26.9425 45.9328 26.3952 44.7737C25.5939 45.6766 24.6764 46.5907 23.5929 47.2882C22.0129 48.3039 20.2072 49.0939 18.0629 49.0939C16.1444 49.0939 14.4515 48.0782 13.5486 47.1753C12.1944 45.9339 11.4044 44.0153 11.2915 42.2096C10.6144 36.6796 14.0001 29.5696 19.1915 26.4096C20.4329 25.7324 21.6744 25.281 22.9158 25.281C25.3986 25.281 27.3172 27.0867 27.5429 29.231C27.7686 31.1496 26.9786 32.8425 24.8344 33.8582C23.7058 34.4225 23.2544 34.4225 23.0286 34.0839C22.9158 33.8582 23.0286 33.6325 23.2544 33.4067C25.2858 31.7139 25.2858 30.3596 25.0601 28.441C24.9472 27.1996 24.0444 26.4096 23.1415 26.4096C19.1915 26.4096 13.5486 35.2125 14.3386 41.6453C14.6772 44.1282 16.1444 47.0625 19.3044 47.0625C20.3201 47.0625 21.4486 46.7239 22.4644 46.2725C24.1121 45.4035 25.0939 44.7263 26.0758 43.6429C25.8354 40.7278 28.3939 36.9053 32.1701 36.9053C33.8629 36.9053 35.2172 37.5825 35.3301 38.8239C35.5558 40.5167 34.0886 40.7425 33.6372 40.7425C33.1858 40.7425 32.3958 40.6296 32.3958 40.1782C32.2829 39.7267 33.4115 39.9525 33.2986 38.9367C33.1858 38.2596 32.5086 38.0339 31.8315 38.0339C29.4615 38.0339 28.1072 41.3067 28.4458 43.3382C28.5586 44.241 29.0101 45.1439 29.9129 45.1439C30.5901 45.1439 31.6058 44.1282 31.9444 42.661C32.1701 41.6453 33.0729 40.9682 33.8629 40.9682C34.2015 40.9682 34.4272 41.081 34.5401 41.5324V41.9839C34.4272 42.4353 34.0886 43.7896 34.2015 44.1282C34.2015 44.3539 34.3144 44.6925 34.7658 44.6925C35.0649 44.6925 36.1991 44.0988 37.3209 43.1802C37.7046 41.239 38.1526 38.9085 38.1526 38.7133C38.2655 37.9233 38.6041 37.1333 40.1841 37.1333C40.5226 37.1333 40.7483 37.2461 40.8612 37.6976V38.149L40.4098 40.1804C41.8769 38.2619 44.0212 36.9076 45.3755 36.9076C45.9398 36.9076 46.3912 37.2461 46.3912 37.8104C46.3912 38.149 46.3912 38.7133 46.1655 39.2776C45.7141 40.519 45.1498 42.4376 44.8112 44.1304C44.8112 44.5819 44.9241 45.0333 45.4883 45.0333C46.0526 45.0333 47.7455 44.3561 49.0998 42.5504L49.1224 42.5369C49.1156 42.3157 49.0998 42.0967 49.0998 41.8744C49.0998 40.5201 49.2126 39.3916 49.4384 38.6016C49.6641 37.6987 50.7926 36.9087 51.4698 36.9087C51.8083 36.9087 52.1469 37.1344 52.1469 37.473C52.1469 37.5858 52.1469 37.8116 52.0341 37.9244C51.5826 39.3916 51.2441 40.7458 51.2441 42.1001C51.2441 42.8901 51.3569 44.0187 51.5826 44.6958C51.5826 44.8087 51.6955 44.9216 51.8083 44.9216C52.0341 44.9216 53.6141 43.4544 54.7426 41.5358C53.7269 40.8587 53.1626 39.7301 53.1626 38.3758C53.1626 36.0058 54.6298 34.7644 55.9841 34.7644C57.1126 34.7644 58.0155 35.5544 58.0155 37.1344C58.0155 38.1501 57.6769 39.2787 57.1126 40.2944H57.4512C58.3541 40.2944 58.9184 39.9558 59.3698 39.5044C59.4742 39.3335 59.6292 39.1994 59.8133 39.1207C60.9148 37.7213 62.5445 36.683 64.4517 36.683C66.0317 36.683 67.4955 37.3601 67.6117 38.6016C67.8375 40.2944 66.368 40.633 65.9155 40.633L65.9087 40.6285Z" fill="#F3F3F3"/>
<path fill-rule="evenodd" clip-rule="evenodd" d="M55.0742 36.1143C54.7356 36.1143 54.5099 36.6785 54.5099 37.2428C54.5099 38.1457 54.9613 39.1614 55.5256 39.7257C55.7513 39.0485 55.8642 38.4843 55.8642 37.8071C55.8642 36.6785 55.4127 36.1143 55.0742 36.1143Z" fill="#00C4CC"/>
</svg>
