<svg width="65" height="65" viewBox="0 0 65 65" fill="none" xmlns="http://www.w3.org/2000/svg">
<path fill-rule="evenodd" clip-rule="evenodd" d="M12.1804 11.5675C14.1917 13.2016 14.9462 13.0769 18.7231 12.8249L54.3294 10.6869C55.0846 10.6869 54.4566 9.93354 54.2047 9.80836L48.2913 5.53338C47.1582 4.65368 45.6487 3.64626 42.7554 3.89827L8.27776 6.41296C7.02036 6.53763 6.76923 7.16633 7.26996 7.67023L12.1804 11.5675ZM14.3181 19.8656V57.3296C14.3181 59.3431 15.3243 60.0963 17.5888 59.9718L56.7202 57.7075C58.9859 57.5829 59.2383 56.198 59.2383 54.5624V17.3497C59.2383 15.7168 58.6101 14.8362 57.2232 14.9619L16.3306 17.3497C14.8214 17.4766 14.318 18.2315 14.318 19.8656H14.3181ZM52.9485 21.8752C53.1993 23.0078 52.9485 24.1394 51.8137 24.2667L49.9284 24.6424V52.3008C48.2913 53.1806 46.7818 53.6836 45.5239 53.6836C43.5099 53.6836 43.0055 53.0545 41.497 51.1698L29.1641 31.8088V50.5411L33.0667 51.4217C33.0667 51.4217 33.0667 53.6836 29.9181 53.6836L21.2382 54.1871C20.986 53.6836 21.2382 52.4275 22.1186 52.1758L24.3837 51.548V26.7803L21.2388 26.5283C20.9865 25.3957 21.6147 23.7626 23.3776 23.6359L32.6892 23.0082L45.5239 42.6213V25.271L42.2515 24.8954C42.0004 23.5108 43.0055 22.5054 44.2639 22.3808L52.9485 21.8752ZM5.38296 3.0187L41.2452 0.377688C45.6492 -1.67787e-05 46.7823 0.253016 49.5503 2.26367L60.998 10.3097C62.8869 11.6933 63.5165 12.07 63.5165 13.5783V57.7075C63.5165 60.4731 62.5089 62.1088 58.9865 62.359L17.3396 64.8739C14.6954 65 13.437 64.6232 12.0523 62.862L3.62203 51.9242C2.11159 49.9107 1.4834 48.4045 1.4834 46.6423V7.41733C1.4834 5.15568 2.49121 3.26906 5.38296 3.0187Z" fill="black"/>
</svg>
