<svg width="67" height="77" viewBox="0 0 67 77" fill="none" xmlns="http://www.w3.org/2000/svg">
<path d="M58.5657 15.1206C58.5132 14.7353 58.1785 14.5224 57.9019 14.499C57.6258 14.4756 51.782 14.0393 51.782 14.0393C51.782 14.0393 47.7235 9.97966 47.2783 9.53043C46.8324 9.0812 45.9621 9.21782 45.6243 9.31812C45.5743 9.33289 44.7375 9.5932 43.3529 10.0246C41.997 6.09414 39.6047 2.48185 35.3953 2.48185C35.2793 2.48185 35.1596 2.48678 35.0398 2.49355C33.8428 0.898478 32.3598 0.205559 31.0791 0.205559C21.2739 0.205559 16.5894 12.5556 15.1205 18.8319C11.3106 20.0215 8.60367 20.867 8.25798 20.9765C6.13131 21.6485 6.06412 21.7162 5.78501 23.7353C5.57429 25.2639 0.00965118 68.6236 0.00965118 68.6236L43.3706 76.8094L66.8654 71.6882C66.8654 71.6882 58.6177 15.5058 58.5657 15.1206ZM40.9563 10.7717C39.8673 11.1113 38.6293 11.4972 37.2874 11.9156C37.2887 11.6553 37.2899 11.3987 37.2899 11.1187C37.2899 8.67567 36.9534 6.70891 36.4134 5.14953C38.5823 5.42399 40.0267 7.91013 40.9563 10.7717ZM33.723 5.63384C34.3259 7.15629 34.718 9.34089 34.718 12.2892C34.718 12.44 34.7168 12.5778 34.7155 12.7175C32.3293 13.4621 29.7366 14.2707 27.1378 15.0818C28.5969 9.40797 31.3319 6.66768 33.723 5.63384ZM30.8097 2.85539C31.233 2.85539 31.6593 3.00001 32.0673 3.28308C28.9249 4.77292 25.5566 8.52551 24.1341 16.019C22.0551 16.6676 20.0231 17.3015 18.1444 17.8879C19.8105 12.1723 23.767 2.85539 30.8097 2.85539Z" fill="#95BF46"/>
<path d="M57.9019 14.499C57.6258 14.4757 51.7821 14.0394 51.7821 14.0394C51.7821 14.0394 47.7236 9.97968 47.2783 9.53046C47.1116 9.36307 46.8868 9.27753 46.6517 9.24061L43.3731 76.8089L66.8654 71.6883C66.8654 71.6883 58.6177 15.5058 58.5658 15.1206C58.5133 14.7354 58.1786 14.5224 57.9019 14.499Z" fill="#5E8E3E"/>
<path d="M35.3954 27.579L32.4985 36.2614C32.4985 36.2614 29.9602 34.8965 26.849 34.8965C22.2878 34.8965 22.0582 37.7808 22.0582 38.5075C22.0582 42.4731 32.3177 43.9924 32.3177 53.281C32.3177 60.5887 27.7175 65.2945 21.5146 65.2945C14.0713 65.2945 10.265 60.6268 10.265 60.6268L12.2579 53.9924C12.2579 53.9924 16.1704 57.377 19.4722 57.377C21.6294 57.377 22.5071 55.6656 22.5071 54.4151C22.5071 49.2423 14.0902 49.0115 14.0902 40.5118C14.0902 33.358 19.1864 26.435 29.4734 26.435C33.4373 26.435 35.3954 27.579 35.3954 27.579Z" fill="#F3F3F3"/>
</svg>
