<svg width="59" height="59" viewBox="0 0 59 59" fill="none" xmlns="http://www.w3.org/2000/svg">
<path fill-rule="evenodd" clip-rule="evenodd" d="M21.5372 0.145262C20.765 0.145979 20.0006 0.298796 19.2875 0.594987C18.5744 0.891177 17.9266 1.32494 17.3811 1.8715C16.8357 2.41806 16.4033 3.06672 16.1085 3.78042C15.8138 4.49412 15.6625 5.25889 15.6634 6.03106C15.6627 6.80313 15.8141 7.56779 16.1088 8.28136C16.4036 8.99494 16.8361 9.64346 17.3815 10.1899C17.927 10.7364 18.5747 11.17 19.2877 11.4661C20.0007 11.7623 20.7651 11.915 21.5372 11.9158H27.411V6.03106C27.4118 5.25889 27.2606 4.49412 26.9658 3.78042C26.6711 3.06672 26.2387 2.41806 25.6932 1.8715C25.1478 1.32494 24.5 0.891177 23.7869 0.594987C23.0738 0.298796 22.3094 0.145979 21.5372 0.145262ZM21.5372 15.8404H5.87378C5.10171 15.8411 4.33734 15.9939 3.62431 16.29C2.91128 16.5861 2.26356 17.0198 1.71813 17.5662C1.1727 18.1126 0.740239 18.7612 0.445443 19.4748C0.150646 20.1883 -0.000714082 20.953 3.65799e-06 21.7251C-0.000857666 22.4972 0.150397 23.262 0.445129 23.9757C0.739861 24.6894 1.1723 25.3381 1.71774 25.8846C2.26319 26.4312 2.91096 26.8649 3.62406 27.1611C4.33716 27.4573 5.10162 27.6101 5.87378 27.6109H21.5372C22.3094 27.6101 23.0738 27.4573 23.7869 27.1611C24.5 26.8649 25.1478 26.4312 25.6932 25.8846C26.2387 25.3381 26.6711 24.6894 26.9658 23.9757C27.2606 23.262 27.4118 22.4972 27.411 21.7251C27.4117 20.953 27.2603 20.1883 26.9655 19.4748C26.6707 18.7612 26.2383 18.1126 25.6928 17.5662C25.1474 17.0198 24.4997 16.5861 23.7867 16.29C23.0736 15.9939 22.3093 15.8411 21.5372 15.8404Z" fill="#36C5F0"/>
<path fill-rule="evenodd" clip-rule="evenodd" d="M58.7378 21.7251C58.7385 20.953 58.5871 20.1883 58.2923 19.4748C57.9975 18.7612 57.5651 18.1126 57.0197 17.5662C56.4742 17.0198 55.8265 16.5861 55.1135 16.29C54.4004 15.9939 53.6361 15.8411 52.864 15.8404C52.0919 15.8411 51.3276 15.9939 50.6145 16.29C49.9015 16.5861 49.2538 17.0198 48.7083 17.5662C48.1629 18.1126 47.7305 18.7612 47.4357 19.4748C47.1409 20.1883 46.9895 20.953 46.9902 21.7251V27.6109H52.864C53.6362 27.6101 54.4006 27.4573 55.1137 27.1611C55.8268 26.8649 56.4746 26.4312 57.02 25.8846C57.5655 25.3381 57.9979 24.6894 58.2927 23.9757C58.5874 23.262 58.7386 22.4972 58.7378 21.7251ZM43.0744 21.7251V6.03106C43.0752 5.25889 42.924 4.49412 42.6292 3.78042C42.3345 3.06671 41.9021 2.41806 41.3566 1.8715C40.8112 1.32494 40.1634 0.891175 39.4503 0.594985C38.7372 0.298794 37.9728 0.145977 37.2006 0.14526C36.4284 0.145977 35.664 0.298794 34.9509 0.594985C34.2378 0.891175 33.59 1.32494 33.0446 1.8715C32.4991 2.41806 32.0667 3.06671 31.7719 3.78042C31.4772 4.49412 31.326 5.25889 31.3268 6.03106V21.7251C31.326 22.4972 31.4772 23.262 31.7719 23.9757C32.0667 24.6894 32.4991 25.3381 33.0446 25.8846C33.59 26.4312 34.2378 26.8649 34.9509 27.1611C35.664 27.4573 36.4284 27.6101 37.2006 27.6109C37.9728 27.6101 38.7372 27.4573 39.4503 27.1611C40.1634 26.8649 40.8112 26.4312 41.3566 25.8846C41.9021 25.3381 42.3345 24.6894 42.6292 23.9757C42.924 23.262 43.0752 22.4972 43.0744 21.7251Z" fill="#2EB67D"/>
<path fill-rule="evenodd" clip-rule="evenodd" d="M37.2006 59C37.9728 58.9993 38.7372 58.8465 39.4503 58.5503C40.1634 58.2541 40.8112 57.8203 41.3566 57.2738C41.9021 56.7272 42.3345 56.0785 42.6292 55.3648C42.924 54.6511 43.0752 53.8864 43.0744 53.1142C43.0751 52.3421 42.9237 51.5775 42.6289 50.8639C42.3341 50.1503 41.9017 49.5018 41.3562 48.9553C40.8108 48.4089 40.1631 47.9752 39.4501 47.6791C38.737 47.383 37.9727 47.2302 37.2006 47.2295H31.3268V53.1142C31.326 53.8864 31.4772 54.6511 31.7719 55.3648C32.0667 56.0785 32.4991 56.7272 33.0446 57.2738C33.59 57.8203 34.2378 58.2541 34.9509 58.5503C35.664 58.8465 36.4284 58.9993 37.2006 59ZM37.2006 43.3049H52.864C53.6361 43.3042 54.4004 43.1514 55.1135 42.8553C55.8265 42.5592 56.4742 42.1255 57.0197 41.5791C57.5651 41.0326 57.9975 40.3841 58.2923 39.6705C58.5871 38.9569 58.7385 38.1923 58.7378 37.4202C58.7386 36.648 58.5874 35.8833 58.2927 35.1696C57.9979 34.4559 57.5655 33.8072 57.02 33.2606C56.4746 32.7141 55.8268 32.2803 55.1137 31.9841C54.4006 31.6879 53.6362 31.5351 52.864 31.5344H37.2006C36.4284 31.5351 35.664 31.6879 34.9509 31.9841C34.2378 32.2803 33.59 32.7141 33.0446 33.2606C32.4991 33.8072 32.0667 34.4559 31.7719 35.1696C31.4772 35.8833 31.326 36.648 31.3268 37.4202C31.3261 38.1923 31.4775 38.9569 31.7723 39.6705C32.0671 40.3841 32.4995 41.0326 33.0449 41.5791C33.5904 42.1255 34.2381 42.5592 34.9511 42.8553C35.6641 43.1514 36.4285 43.3042 37.2006 43.3049Z" fill="#ECB22E"/>
<path fill-rule="evenodd" clip-rule="evenodd" d="M4.97838e-06 37.4202C-0.000712761 38.1923 0.150648 38.9569 0.445444 39.6705C0.740241 40.3841 1.1727 41.0326 1.71813 41.5791C2.26356 42.1255 2.91128 42.5592 3.62431 42.8553C4.33734 43.1514 5.10171 43.3042 5.87378 43.3049C6.64586 43.3042 7.41023 43.1514 8.12325 42.8553C8.83628 42.5592 9.484 42.1255 10.0294 41.5791C10.5749 41.0326 11.0073 40.3841 11.3021 39.6705C11.5969 38.9569 11.7483 38.1923 11.7476 37.4202V31.5344H5.87378C5.10153 31.5351 4.33698 31.688 3.6238 31.9842C2.91063 32.2805 2.26282 32.7143 1.71736 33.261C1.1719 33.8077 0.739484 34.4565 0.444816 35.1703C0.150149 35.8841 -0.000999963 36.649 4.97838e-06 37.4213V37.4202ZM15.6634 37.4202V53.1142C15.6625 53.8864 15.8138 54.6511 16.1085 55.3648C16.4033 56.0785 16.8357 56.7272 17.3812 57.2738C17.9266 57.8203 18.5744 58.2541 19.2875 58.5503C20.0006 58.8465 20.765 58.9993 21.5372 59C22.3094 58.9993 23.0738 58.8465 23.7869 58.5503C24.5 58.2541 25.1478 57.8203 25.6932 57.2738C26.2387 56.7272 26.6711 56.0785 26.9658 55.3648C27.2606 54.6511 27.4118 53.8864 27.411 53.1142V37.4213C27.4118 36.6491 27.2606 35.8844 26.9658 35.1707C26.6711 34.4569 26.2387 33.8083 25.6932 33.2617C25.1478 32.7152 24.5 32.2814 23.7869 31.9852C23.0738 31.689 22.3094 31.5362 21.5372 31.5355C20.765 31.5362 20.0006 31.689 19.2875 31.9852C18.5744 32.2814 17.9266 32.7152 17.3812 33.2617C16.8357 33.8083 16.4033 34.4569 16.1085 35.1707C15.8138 35.8844 15.6625 36.6491 15.6634 37.4213" fill="#E01E5A"/>
</svg>
